<svg width="32" height="32" viewBox="0 0 32 32" fill="none" xmlns="http://www.w3.org/2000/svg">
  <rect width="32" height="32" rx="8" fill="#0F0F23"/>
  <path d="M8 12C8 10.8954 8.89543 10 10 10H22C23.1046 10 24 10.8954 24 12V20C24 21.1046 23.1046 22 22 22H10C8.89543 22 8 21.1046 8 20V12Z" fill="#00D4FF"/>
  <path d="M12 14C12 13.4477 12.4477 13 13 13H19C19.5523 13 20 13.4477 20 14V18C20 18.5523 19.5523 19 19 19H13C12.4477 19 12 18.5523 12 18V14Z" fill="#0F0F23"/>
  <circle cx="16" cy="16" r="2" fill="#00D4FF"/>
  <path d="M6 8L26 8" stroke="#00D4FF" stroke-width="2" stroke-linecap="round"/>
  <path d="M6 24L26 24" stroke="#00D4FF" stroke-width="2" stroke-linecap="round"/>
</svg>
