<svg width="32" height="32" viewBox="0 0 32 32" fill="none" xmlns="http://www.w3.org/2000/svg">
  <!-- Background with gradient -->
  <defs>
    <linearGradient id="bgGradient" x1="0%" y1="0%" x2="100%" y2="100%">
      <stop offset="0%" style="stop-color:#0F0F23;stop-opacity:1" />
      <stop offset="100%" style="stop-color:#1a1a2e;stop-opacity:1" />
    </linearGradient>
    <linearGradient id="neonGradient" x1="0%" y1="0%" x2="100%" y2="100%">
      <stop offset="0%" style="stop-color:#00D4FF;stop-opacity:1" />
      <stop offset="50%" style="stop-color:#0099CC;stop-opacity:1" />
      <stop offset="100%" style="stop-color:#0066FF;stop-opacity:1" />
    </linearGradient>
  </defs>
  
  <!-- Background -->
  <rect width="32" height="32" rx="8" fill="url(#bgGradient)"/>
  
  <!-- Main vault/box shape -->
  <rect x="6" y="8" width="20" height="16" rx="3" fill="url(#neonGradient)" stroke="#00D4FF" stroke-width="1"/>
  
  <!-- Inner content area -->
  <rect x="8" y="10" width="16" height="12" rx="2" fill="#0F0F23" opacity="0.8"/>
  
  <!-- Lightning bolt (Zap icon) -->
  <path d="M14 16L18 12L16 16L20 16L16 20L14 16Z" fill="#00D4FF" opacity="0.9"/>
  
  <!-- Lock icon -->
  <rect x="13" y="18" width="6" height="4" rx="1" fill="#00D4FF" opacity="0.7"/>
  <path d="M15 18V16C15 15.4 15.4 15 16 15C16.6 15 17 15.4 17 16V18" stroke="#00D4FF" stroke-width="1" fill="none"/>
  
  <!-- Glow effect -->
  <rect x="6" y="8" width="20" height="16" rx="3" fill="none" stroke="#00D4FF" stroke-width="0.5" opacity="0.3"/>
</svg>